<?xml version="1.0" standalone="no"?>
<!DOCTYPE svg PUBLIC "-//W3C//DTD SVG 20010904//EN"
 "http://www.w3.org/TR/2001/REC-SVG-20010904/DTD/svg10.dtd">
<svg version="1.0" xmlns="http://www.w3.org/2000/svg"
 width="263.000000pt" height="263.000000pt" viewBox="0 0 263.000000 263.000000"
 preserveAspectRatio="xMidYMid meet">
<metadata>
Created by potrace 1.11, written by Peter Selinger 2001-2013
</metadata>
<g transform="translate(0.000000,263.000000) scale(0.100000,-0.100000)"
fill="#000000" stroke="none">
<path d="M220 1300 l0 -1110 1110 0 1110 0 0 1110 0 1110 -1110 0 -1110 0 0
-1110z m2170 0 l0 -1060 -1060 0 -1060 0 0 1060 0 1060 1060 0 1060 0 0 -1060z"/>
<path d="M417 1882 c-15 -17 -17 -71 -17 -591 0 -623 -3 -591 55 -577 l25 6 0
228 0 228 73 63 72 63 292 -296 c161 -163 299 -296 307 -296 71 0 60 41 -39
140 -47 47 -177 180 -290 297 l-205 211 269 234 c148 128 272 239 275 247 18
41 -27 70 -66 43 -13 -9 -167 -142 -343 -297 -176 -154 -326 -284 -333 -289
-10 -6 -11 49 -7 281 4 158 3 293 -2 299 -16 22 -49 25 -66 6z"/>
<path d="M1695 1877 c-128 -33 -227 -102 -273 -191 -21 -41 -26 -66 -26 -126
-1 -65 3 -81 27 -123 42 -71 123 -125 222 -147 22 -5 108 -16 190 -24 266 -27
345 -77 345 -221 0 -104 -49 -172 -160 -224 -51 -24 -66 -26 -190 -26 -125 0
-139 2 -192 27 -70 33 -138 94 -169 153 -26 49 -51 64 -74 45 -23 -19 -18 -51
13 -101 38 -58 108 -122 171 -153 160 -81 391 -74 534 16 100 64 147 149 147
268 0 117 -61 204 -176 248 -61 24 -84 28 -266 47 -209 22 -286 54 -327 137
-28 58 -27 103 5 166 30 60 64 90 149 128 70 32 211 44 293 24 73 -17 154 -78
192 -146 28 -47 36 -55 59 -52 35 4 40 46 11 92 -36 59 -135 143 -197 167 -71
27 -230 35 -308 16z"/>
</g>
</svg>
